<?xml version="1.0" encoding="UTF-8" standalone="no"?>
<!-- Created with Inkscape (http://www.inkscape.org/) -->

<svg
   width="107.49182mm"
   height="96.612617mm"
   viewBox="0 0 107.49182 96.612617"
   version="1.1"
   id="svg3192"
   xmlns="http://www.w3.org/2000/svg"><defs
     id="defs3189" /><path
     style="display:inline;fill:#346d68;fill-opacity:1;stroke-width:0.264583;stroke-linecap:round;stroke-dasharray:15.8682, 6.34727, 3.17362, 7.93409"
     d="m -703.62107,-89.785367 5.37859,-14.932413 3.78197,-7.78641 4.44938,-6.56284 4.89432,-2.89209 4.67184,-1.11235 7.45272,-1.33481 9.00999,-1.44605 4.00444,-6.7853 1.33481,-1.55729 2.66963,-0.55617 0.66741,-1.22358 -1.55728,-3.67074 -0.44494,-3.33703 -1.44605,-1.55728 -0.44494,-3.78198 -2.55839,-4.67185 -0.20956,-2.19712 0.59156,-0.9107 1.22078,-0.12415 0.0977,-0.77247 -0.56792,-0.65391 0.20222,-3.573 c 0,0 0.5255,-11.20625 2.8921,-16.129 0.6831,-1.42091 1.86266,-2.60118 3.11456,-3.5595 1.47475,-1.12891 3.30042,-1.71104 5.00555,-2.44716 2.51008,-1.08362 4.97018,-2.49503 7.67519,-2.8921 2.13279,-0.31307 4.366,-0.10009 6.4516,0.44494 3.01678,0.78838 6.00096,2.07934 8.45382,4.00444 1.20261,0.94386 2.18682,2.20314 2.89209,3.55951 1.44029,2.76998 2.02619,5.93363 2.5584,9.00999 0.67145,3.88119 0.77864,11.79086 0.77864,11.79086 l -0.66741,1.44604 1.11235,0.55618 0.77864,1.66851 -2.8921,5.33926 -0.66741,2.44716 -0.55617,-0.11124 -1.33481,6.78531 -2.5584,4.11567 -1.89098,1.77975 -0.33371,3.33704 1.44605,3.00333 1.89099,5.89543 4.44938,1.66852 8.23135,3.5595 6.89654,3.78197 2.44716,1.55729 4.78308,7.67518 3.33704,13.125665 z"
     id="path3379"
     transform="translate(703.62106,186.39798)" /></svg>
