<svg width="107.49mm" height="96.613mm" version="1.1" viewBox="0 0 107.49 96.613" xmlns="http://www.w3.org/2000/svg">
 <path transform="translate(703.62 186.4)" d="m-703.62-89.785 5.3786-14.932 3.782-7.7864 4.4494-6.5628 4.8943-2.8921 4.6718-1.1124 7.4527-1.3348 9.01-1.446 4.0044-6.7853 1.3348-1.5573 2.6696-0.55617 0.66741-1.2236-1.5573-3.6707-0.44494-3.337-1.446-1.5573-0.44494-3.782-2.5584-4.6718-0.20956-2.1971 0.59156-0.9107 1.2208-0.12415 0.0977-0.77247-0.56792-0.65391 0.20222-3.573s0.5255-11.206 2.8921-16.129c0.6831-1.4209 1.8627-2.6012 3.1146-3.5595 1.4748-1.1289 3.3004-1.711 5.0056-2.4472 2.5101-1.0836 4.9702-2.495 7.6752-2.8921 2.1328-0.31307 4.366-0.10009 6.4516 0.44494 3.0168 0.78838 6.001 2.0793 8.4538 4.0044 1.2026 0.94386 2.1868 2.2031 2.8921 3.5595 1.4403 2.77 2.0262 5.9336 2.5584 9.01 0.67145 3.8812 0.77864 11.791 0.77864 11.791l-0.66741 1.446 1.1124 0.55618 0.77864 1.6685-2.8921 5.3393-0.66741 2.4472-0.55617-0.11124-1.3348 6.7853-2.5584 4.1157-1.891 1.7798-0.33371 3.337 1.446 3.0033 1.891 5.8954 4.4494 1.6685 8.2314 3.5595 6.8965 3.782 2.4472 1.5573 4.7831 7.6752 3.337 13.126z" fill="#A8DADC" stroke-dasharray="15.8682, 6.34727, 3.17362, 7.93409" stroke-linecap="round" stroke-width=".26458"/>
</svg>
