<?xml version="1.0" encoding="UTF-8" standalone="no"?>
<svg
   height="24"
   preserveAspectRatio="xMidYMid"
   viewBox="0 0 24 24"
   width="24"
   version="1.1"
   id="svg22"
   sodipodi:docname="litmus.svg"
   inkscape:version="1.2.2 (732a01da63, 2022-12-09)"
   xmlns:inkscape="http://www.inkscape.org/namespaces/inkscape"
   xmlns:sodipodi="http://sodipodi.sourceforge.net/DTD/sodipodi-0.dtd"
   xmlns="http://www.w3.org/2000/svg"
   xmlns:svg="http://www.w3.org/2000/svg">
  <defs
     id="defs26" />
  <sodipodi:namedview
     id="namedview24"
     pagecolor="#ffffff"
     bordercolor="#000000"
     borderopacity="0.25"
     inkscape:showpageshadow="2"
     inkscape:pageopacity="0.0"
     inkscape:pagecheckerboard="0"
     inkscape:deskcolor="#d1d1d1"
     showgrid="false"
     inkscape:zoom="0.921875"
     inkscape:cx="-45.559322"
     inkscape:cy="128"
     inkscape:window-width="1920"
     inkscape:window-height="1137"
     inkscape:window-x="-8"
     inkscape:window-y="-8"
     inkscape:window-maximized="1"
     inkscape:current-layer="svg22" />
  <g
     id="g355"
     transform="matrix(0.09375,0,0,0.09375,0,0.005625)">
    <path
       d="m 0,127.94 c 0,12.487 1.799,24.552 5.133,35.961 l 70.62,-23.131 c -0.892,-3.852 -1.367,-7.864 -1.367,-11.988 0,-4.773 0.649,-9.391 1.832,-13.79 L 5.095,92.109 C 1.784,103.479 0,115.5 0,127.94"
       fill="#6a7a55"
       id="path2" />
    <path
       d="M 93.597,87.948 48.946,27.277 C 30.192,42.024 15.664,61.898 7.466,84.785 l 71.289,22.937 c 3.346,-7.712 8.457,-14.479 14.842,-19.774"
       fill="#a09440"
       id="path4" />
    <path
       d="M 124.211,75.836 V 0 C 98.583,0.745 74.848,9.027 55.136,22.7 l 44.725,60.772 c 7.175,-4.375 15.465,-7.102 24.35,-7.636"
       fill="#afa148"
       id="path6" />
    <path
       d="M 78.044,148.12 7.512,171.222 c 8.316,23.145 23.104,43.203 42.191,57.981 L 93.234,169.311 C 86.55,163.668 81.293,156.398 78.044,148.12"
       fill="#4c5c59"
       id="path8" />
    <path
       d="m 55.934,233.725 c 19.554,13.346 42.993,21.419 68.277,22.155 v -74.152 c -9.052,-0.544 -17.485,-3.368 -24.752,-7.888 z"
       fill="#48555d"
       id="path10" />
    <path
       d="M 200.148,22.212 C 180.609,8.854 157.182,0.763 131.909,0.005 v 75.926 c 8.587,0.717 16.59,3.482 23.527,7.798 z"
       fill="#e3b23b"
       id="path12" />
    <path
       d="m 131.909,181.633 v 74.242 c 25.471,-0.764 49.068,-8.976 68.699,-22.522 l -44.245,-60.119 c -7.148,4.657 -15.48,7.65 -24.454,8.399"
       fill="#903024"
       id="path14" />
    <path
       d="m 162.495,168.577 44.317,60.217 c 19.033,-14.892 33.734,-35.058 41.928,-58.294 l -71.649,-23.052 c -3.09,8.2 -8.138,15.44 -14.596,21.129"
       fill="#d65841"
       id="path16" />
    <path
       d="m 256,127.94 c 0,-12.642 -1.84,-24.852 -5.254,-36.386 l -72.044,23.597 c 1.156,4.351 1.789,8.915 1.789,13.631 0,3.873 -0.422,7.647 -1.21,11.283 l 71.796,23.1 C 254.275,151.973 256,140.159 256,127.94"
       fill="#e6703e"
       id="path18" />
    <path
       d="M 176.188,107.874 248.342,84.24 C 240.01,61.303 225.31,41.422 206.375,26.739 l -44.718,61.526 c 6.252,5.281 11.252,11.987 14.531,19.609"
       fill="#f4a83a"
       id="path20" />
  </g>
</svg>
