<?xml version="1.0" encoding="UTF-8" standalone="no"?>
<!-- Created with Inkscape (http://www.inkscape.org/) -->

<svg
   width="75.778488mm"
   height="95.337715mm"
   viewBox="0 0 75.778487 95.337715"
   version="1.1"
   id="svg3192"
   xmlns="http://www.w3.org/2000/svg"><defs
     id="defs3189" /><path
     style="fill:#346d68;fill-opacity:1;stroke-width:0.264583;stroke-linecap:round;stroke-dasharray:15.8682, 6.34727, 3.17362, 7.93409"
     d="m -581.89121,-90.702232 2.89209,-18.576158 6.4516,-11.45715 9.19988,-7.3596 1.70111,-5.98854 h 4.22691 l 1.25288,-5.0337 0.73816,-4.78424 -4.21573,-7.31217 c 0,0 -2.35544,-7.77336 -2.66963,-11.79086 -0.26076,-3.33426 -0.43264,-6.85275 0.66741,-10.0111 0.85926,-2.46701 2.44037,-4.78176 4.44938,-6.4516 3.49741,-2.90696 8.04516,-4.46313 12.45826,-5.56172 3.1736,-0.79003 6.60896,-1.43264 9.78863,-0.66741 2.94279,0.70822 5.6355,2.54226 7.78642,4.67185 2.72041,2.69344 6.00666,9.78863 6.00666,9.78863 l 15.04446,2.78087 -0.83426,1.61289 -13.09786,2.28031 0.88988,3.78197 -0.66741,2.66963 4.39537,7.34148 1.11234,1.33481 v 1.55728 l -1.77975,2.00222 h -2.00222 l 0.22247,2.22469 0.44494,0.88988 -1.19657,1.55728 0.66741,1.77975 -1.33482,0.66741 -0.97411,1.33481 v 1.55729 l 0.88988,1.11234 0.22247,1.77975 -0.88988,1.77975 -5.78419,1.11235 -4.89432,1.33481 -2.22469,4.00444 6.4516,3.78198 -3.33703,6.4516 8.23135,23.804178"
     id="path3607"
     transform="translate(581.89122,186.03995)" /></svg>
