<?xml version="1.0" encoding="UTF-8" standalone="no"?>
<svg
   height="24"
   preserveAspectRatio="xMidYMid"
   viewBox="0 0 24 24"
   width="24"
   version="1.1"
   id="svg18"
   sodipodi:docname="visual-studio-code.svg"
   inkscape:version="1.2.2 (732a01da63, 2022-12-09)"
   xmlns:inkscape="http://www.inkscape.org/namespaces/inkscape"
   xmlns:sodipodi="http://sodipodi.sourceforge.net/DTD/sodipodi-0.dtd"
   xmlns="http://www.w3.org/2000/svg"
   xmlns:svg="http://www.w3.org/2000/svg">
  <defs
     id="defs22" />
  <sodipodi:namedview
     id="namedview20"
     pagecolor="#ffffff"
     bordercolor="#000000"
     borderopacity="0.25"
     inkscape:showpageshadow="2"
     inkscape:pageopacity="0.0"
     inkscape:pagecheckerboard="0"
     inkscape:deskcolor="#d1d1d1"
     showgrid="false"
     inkscape:zoom="0.92913386"
     inkscape:cx="-44.127119"
     inkscape:cy="127"
     inkscape:window-width="1920"
     inkscape:window-height="1137"
     inkscape:window-x="-8"
     inkscape:window-y="-8"
     inkscape:window-maximized="1"
     inkscape:current-layer="svg18" />
  <linearGradient
     id="a"
     x1="127.17294"
     x2="127.17294"
     y1="0.00016557419"
     y2="254.3456"
     gradientTransform="scale(1.002588,0.99741863)"
     gradientUnits="userSpaceOnUse">
    <stop
       offset="0"
       stop-color="#fff"
       id="stop2" />
    <stop
       offset="1"
       stop-color="#fff"
       stop-opacity="0"
       id="stop4" />
  </linearGradient>
  <mask
     id="b"
     fill="#ffffff">
    <path
       d="m 180.82764,252.60527 c 4.01631,1.56489 8.59642,1.46428 12.65058,-0.4861 l 52.50092,-25.26232 c 5.51645,-2.65463 9.02475,-8.23882 9.02475,-14.36389 V 41.197185 c 0,-6.125274 -3.5083,-11.708564 -9.02475,-14.363194 L 193.47822,1.5706855 c -5.32021,-2.55994221 -11.54689,-1.93291554 -16.21565,1.4616604 -0.6674,0.4849258 -1.30291,1.0263508 -1.89859,1.6230201 L 74.856589,96.349844 31.0778,63.118156 C 27.00242,60.02464 21.302087,60.27805 17.517072,63.721101 L 3.4757806,76.493708 c -4.6298048,4.211548 -4.6351141,11.495196 -0.011465,15.713519 L 41.430759,126.84453 3.4643154,161.48222 c -4.6236489,4.21852 -4.6183396,11.50207 0.011465,15.71362 l 14.0412914,12.77211 c 3.785015,3.44355 9.485348,3.69656 13.560728,0.60364 L 74.856589,157.3394 175.36398,249.03422 c 1.58979,1.59079 3.4565,2.78911 5.46366,3.57105 z m 10.46412,-183.649318 -76.2621,57.888578 76.2621,57.88887 z"
       fill="#ffffff"
       id="path7" />
  </mask>
  <g
     id="g345"
     transform="matrix(0.09411621,0,0,0.09411621,1.6959416e-7,0.06183851)">
    <path
       d="M 246.13478,26.873337 193.59302,1.5752377 c -6.08124,-2.9282435 -13.34985,-1.69304551 -18.1232,3.0799091 L 3.4664172,161.48222 c -4.6264579,4.21852 -4.6211387,11.50207 0.011475,15.71362 L 17.52768,189.96795 c 3.787406,3.44355 9.491225,3.69656 13.568996,0.60364 L 238.22867,33.4363 c 6.94885,-5.271607 16.92986,-0.315368 16.92986,8.406961 v -0.610017 c 0,-6.122584 -3.50729,-11.703882 -9.02375,-14.359907 z"
       fill="#0065a9"
       mask="url(#b)"
       id="path10" />
    <path
       d="m 246.13478,226.81601 -52.54176,25.29818 c -6.08124,2.92756 -13.34985,1.69239 -18.1232,-3.07997 L 3.4664172,92.207027 C -1.1600407,87.988805 -1.1547215,80.704957 3.4778923,76.493508 L 17.52768,63.720901 c 3.787406,-3.44305 9.491225,-3.69656 13.568996,-0.602945 L 238.22867,220.25265 c 6.94885,5.27141 16.92986,0.31577 16.92986,-8.40716 v 0.61061 c 0,6.12209 -3.50729,11.70329 -9.02375,14.35991 z"
       fill="#007acc"
       mask="url(#b)"
       id="path12" />
    <path
       d="m 193.42832,252.1345 c -6.08323,2.92557 -13.35184,1.6894 -18.1252,-3.08396 5.88103,5.88103 15.93775,1.7153 15.93775,-6.60221 V 11.272962 c 0,-8.3175393 -10.05672,-12.4830129 -15.93775,-6.6016022 4.77336,-4.77339791 12.04197,-6.0103391 18.1252,-3.0846805 l 52.5328,25.2633347 c 5.52043,2.654631 9.03072,8.237921 9.03072,14.363194 V 212.50928 c 0,6.12508 -3.51029,11.70827 -9.03072,14.3629 z"
       fill="#1f9cf0"
       mask="url(#b)"
       id="path14" />
    <path
       d="m 180.82789,252.60527 c 4.01631,1.56389 8.59642,1.46428 12.64959,-0.4861 l 52.50091,-25.26331 c 5.51745,-2.65463 9.02575,-8.23783 9.02575,-14.3629 V 41.196985 c 0,-6.125273 -3.5083,-11.708563 -9.02475,-14.363193 L 193.47748,1.5705261 c -5.31922,-2.55994916 -11.5459,-1.93292249 -16.21566,1.4616505 -0.6664,0.4849257 -1.30192,1.0263508 -1.89858,1.62302 L 74.85654,96.349645 31.07775,63.117957 C 27.00247,60.024441 21.302037,60.27795 17.517022,63.720901 L 3.4757806,76.493508 c -4.6298048,4.211549 -4.6351141,11.495297 -0.011465,15.713619 L 41.430809,126.84453 3.4643154,161.48222 c -4.6236489,4.21852 -4.6183396,11.50207 0.011465,15.71362 l 14.0412416,12.77211 c 3.785015,3.44355 9.485448,3.69656 13.560728,0.60364 l 43.77879,-33.23219 100.5067,91.69482 c 1.58979,1.59079 3.45749,2.78911 5.46465,3.57105 z m 10.46412,-183.649517 -76.2621,57.888777 76.2621,57.88887 z"
       fill="url(#a)"
       fill-opacity="0.25"
       mask="url(#b)"
       id="path16"
       style="fill:url(#a)" />
  </g>
</svg>
